Coordinates
version=1
nRows=13
nColumns=22
inDegrees=yes

Units are S.I. units (second, meters, Newtons, ...)
If the header above contains a line with 'inDegrees', this indicates whether rotational values are in degrees (yes) or radians (no).

endheader
time	pelvis_tilt	pelvis_list	pelvis_rotation	pelvis_tx	pelvis_ty	pelvis_tz	hip_flexion_r	hip_adduction_r	hip_rotation_r	knee_angle_r	ankle_angle_r	subtalar_angle_r	hip_flexion_l	hip_adduction_l	hip_rotation_l	knee_angle_l	ankle_angle_l	subtalar_angle_l	lumbar_extension	lumbar_bending	lumbar_rotation
      0.01000000	      5.84150656	     -2.64659365	      8.84738820	     -1.37136477	      0.95562081	     -0.55786883	     -5.41294861	      4.09848881	    -13.40776992	     -8.77145464	      9.09109838	     -0.76283095	     -1.07998523	     -4.23089623	    -10.75768747	    -16.45276751	     19.97763976	     -8.07048739	    -12.63566188	      3.84220890	     -8.93082068
      0.02000000	      5.83909942	     -2.64790541	      8.84185102	     -1.37134310	      0.95561866	     -0.55785811	     -5.41161461	      4.09911909	    -13.40827120	     -8.77008338	      9.09127387	     -0.76309664	     -1.07942966	     -4.23156984	    -10.75861069	    -16.45261067	     19.97781171	     -8.07050659	    -12.63908725	      3.84154558	     -8.93304719
      0.03000000	      5.83601985	     -2.64987577	      8.83380837	     -1.37132069	      0.95561512	     -0.55784475	     -5.40963610	      4.09994419	    -13.40920751	     -8.76853836	      9.09129689	     -0.76338912	     -1.07852591	     -4.23252246	    -10.76056410	    -16.45187799	     19.97850237	     -8.07055872	    -12.64329632	      3.84224368	     -8.93686925
      0.04000000	      5.83226238	     -2.65260773	      8.82513815	     -1.37129678	      0.95561137	     -0.55782923	     -5.40742491	      4.10131142	    -13.41061724	     -8.76684583	      9.09108632	     -0.76364309	     -1.07726998	     -4.23420618	    -10.76345609	    -16.45046888	     19.97964534	     -8.07072338	    -12.64777318	      3.84383211	     -8.94148571
      0.05000000	      5.82574955	     -2.66796676	      8.81280836	     -1.37125625	      0.95559808	     -0.55780860	     -5.39855326	      4.11523582	    -13.41208194	     -8.77001314	      9.08543914	     -0.76564370	     -1.07467946	     -4.25173384	    -10.79593119	    -16.44562395	     19.99193433	     -8.07364658	    -12.64374082	      3.86221233	     -8.95950868
      0.06000000	      5.82124143	     -2.67096139	      8.80284344	     -1.37123517	      0.95559045	     -0.55778626	     -5.39652220	      4.11675801	    -13.41460370	     -8.76585762	      9.08508863	     -0.76575310	     -1.07164316	     -4.25401239	    -10.79607602	    -16.44638491	     19.99329079	     -8.07385009	    -12.64969131	      3.86279314	     -8.96150764
      0.07000000	      5.81626202	     -2.67534805	      8.79168395	     -1.37121036	      0.95558163	     -0.55776236	     -5.39368281	      4.12014444	    -13.41783985	     -8.76120783	      9.08452769	     -0.76588396	     -1.06913626	     -4.25741630	    -10.79779747	    -16.44660291	     19.99510072	     -8.07455794	    -12.65478165	      3.86533821	     -8.96536306
      0.08000000	      5.80055083	     -2.71729874	      8.78892419	     -1.37117848	      0.95553636	     -0.55773855	     -5.37700216	      4.16528526	    -13.41782288	     -8.74862329	      9.05957912	     -0.76987487	     -1.02731581	     -4.31071931	    -10.83865318	    -16.49095254	     20.04130745	     -8.09301247	    -12.63673325	      3.91322583	     -8.97339137
      0.09000000	      5.79574894	     -2.71937137	      8.78052058	     -1.37114755	      0.95552841	     -0.55772165	     -5.37453506	      4.16597240	    -13.41916944	     -8.74589674	      9.05971464	     -0.76991806	     -1.02589191	     -4.31193974	    -10.83851406	    -16.48948417	     20.04193804	     -8.09331444	    -12.64115343	      3.91344412	     -8.97817168
      0.10000000	      5.79081434	     -2.72221982	      8.77135781	     -1.37110892	      0.95552212	     -0.55770903	     -5.37158329	      4.16745646	    -13.42010960	     -8.74349860	      9.05997110	     -0.76994522	     -1.02535899	     -4.31333058	    -10.83991147	    -16.48782568	     20.04314835	     -8.09395983	    -12.64418438	      3.91588513	     -8.98656204
      0.11000000	      5.78413935	     -2.72909971	      8.76899341	     -1.37105050	      0.95550979	     -0.55771577	     -5.36636930	      4.17307774	    -13.41501389	     -8.74544871	      9.06062326	     -0.76968519	     -1.02409803	     -4.32009826	    -10.85385459	    -16.48166516	     20.05170626	     -8.09685793	    -12.63782199	      3.92699637	     -9.01868568
      0.12000000	      5.78017018	     -2.73076216	      8.76316887	     -1.37100496	      0.95550329	     -0.55771435	     -5.36536507	      4.17349901	    -13.41558653	     -8.74316545	      9.06092240	     -0.76947782	     -1.02239905	     -4.32038252	    -10.85452598	    -16.48253310	     20.05382291	     -8.09694442	    -12.64112485	      3.92819604	     -9.02394636
      0.13000000	      5.77454540	     -2.73356135	      8.76338262	     -1.37094367	      0.95548963	     -0.55773201	     -5.36346342	      4.17555625	    -13.40785219	     -8.74245598	      9.06232383	     -0.76735195	     -1.01876008	     -4.32313249	    -10.86840728	    -16.48394838	     20.07074344	     -8.09674363	    -12.63671753	      3.93444108	     -9.05958905
